<?xml version="1.0" encoding="UTF-8"?>
<svg id="Capa_2" xmlns="http://www.w3.org/2000/svg" viewBox="0 0 952.79 775.42">
  <defs>
    <style>
      .cls-1 {
        fill: #f2ebe7;
      }

      .cls-2 {
        fill: #fff;
      }

      .cls-3 {
        fill: #c9c8cc;
      }
    </style>
  </defs>
  <g id="Capa_1-2" data-name="Capa_1">
    <g>
      <g>
        <g>
          <g>
            <rect class="cls-1" x="56.4" y="710.02" width="65.36" height="65.4"/>
            <rect class="cls-2" x="9.71" y="728.7" width="28.01" height="28.03"/>
          </g>
          <g>
            <rect class="cls-3" x="261.82" y="719.36" width="46.69" height="46.71"/>
            <rect class="cls-2" x="205.8" y="728.7" width="28.01" height="28.03"/>
          </g>
          <g>
            <rect class="cls-3" x="327.19" y="457.78" width="46.69" height="46.71"/>
            <rect class="cls-3" x="196.46" y="457.78" width="46.69" height="46.71"/>
            <rect class="cls-1" x="261.82" y="523.17" width="46.69" height="46.71"/>
            <rect class="cls-2" x="392.55" y="588.58" width="46.69" height="46.71"/>
            <rect class="cls-2" x="271.16" y="663.31" width="28.01" height="28.03"/>
          </g>
          <g>
            <rect class="cls-2" x="56.4" y="644.62" width="65.36" height="65.4"/>
            <rect class="cls-3" x="131.1" y="653.96" width="46.69" height="46.71"/>
            <rect class="cls-1" x="65.74" y="588.57" width="46.69" height="46.71"/>
            <rect class="cls-3" x=".38" y="523.17" width="46.69" height="46.71"/>
            <rect class="cls-1" x="131.1" y="523.17" width="46.69" height="46.71"/>
            <rect class="cls-2" x="75.08" y="467.12" width="28.01" height="28.03"/>
            <rect class="cls-2" x="121.76" y="448.43" width="65.36" height="65.4"/>
          </g>
        </g>
        <g>
          <g>
            <rect class="cls-3" x="130.72" y="392.38" width="46.69" height="46.71"/>
            <rect class="cls-2" x="74.7" y="401.72" width="28.01" height="28.03"/>
            <rect class="cls-3" x="261.45" y="392.38" width="46.69" height="46.71"/>
            <rect class="cls-1" x="121.39" y="317.64" width="65.36" height="65.4"/>
            <rect class="cls-1" x="196.08" y="326.98" width="46.69" height="46.71"/>
            <rect class="cls-2" x="252.11" y="317.64" width="65.36" height="65.4"/>
            <rect class="cls-2" x="65.36" y="261.58" width="46.69" height="46.71"/>
            <rect class="cls-3" x="65.36" y="196.2" width="46.69" height="46.71"/>
          </g>
          <g>
            <rect class="cls-2" x="9.34" y="205.53" width="28.01" height="28.03"/>
            <rect class="cls-3" x="0" y="392.37" width="46.69" height="46.71"/>
          </g>
          <rect class="cls-1" x="0" y="65.4" width="46.69" height="46.71"/>
          <g>
            <rect class="cls-2" x="121.39" y="121.45" width="65.36" height="65.4"/>
            <rect class="cls-2" x="270.78" y="140.14" width="28.01" height="28.03"/>
            <rect class="cls-1" x="65.36" y="0" width="46.69" height="46.71"/>
          </g>
        </g>
      </g>
      <g>
        <rect class="cls-3" x="457.91" y="392.37" width="46.69" height="46.71"/>
        <g>
          <rect class="cls-3" x="719.35" y="653.96" width="46.69" height="46.71"/>
          <g>
            <rect class="cls-3" x="588.63" y="653.97" width="46.69" height="46.71"/>
            <rect class="cls-2" x="663.33" y="663.31" width="28.01" height="28.03"/>
            <rect class="cls-1" x="579.29" y="579.23" width="65.36" height="65.4"/>
            <rect class="cls-1" x="523.27" y="588.57" width="46.69" height="46.71"/>
            <rect class="cls-1" x="457.91" y="523.17" width="46.69" height="46.71"/>
          </g>
          <g>
            <rect class="cls-2" x="597.97" y="728.7" width="28.01" height="28.03"/>
            <rect class="cls-3" x="457.91" y="719.37" width="46.69" height="46.71"/>
          </g>
          <g>
            <rect class="cls-2" x="775.38" y="710.02" width="65.36" height="65.4"/>
            <rect class="cls-2" x="924.78" y="728.7" width="28.01" height="28.03"/>
          </g>
        </g>
      </g>
    </g>
  </g>
</svg>