<?xml version="1.0" encoding="UTF-8"?>
<svg id="Capa_2" xmlns="http://www.w3.org/2000/svg" viewBox="0 0 730 555">
  <defs>
    <style>
      .cls-1 {
        fill: #4d4d4d;
      }

      .cls-2 {
        fill: gray;
      }

      .cls-3 {
        fill: #e6e6e6;
      }
    </style>
  </defs>
  <g id="Capa_1-2" data-name="Capa_1">
    <g>
      <g>
        <g>
          <g>
            <rect class="cls-2" x="630" y="525" width="25" height="25"/>
            <rect class="cls-1" x="660" y="520" width="35" height="35"/>
            <rect class="cls-1" x="600" y="530" width="15" height="15"/>
            <rect class="cls-2" x="700" y="525" width="25" height="25"/>
            <rect class="cls-3" x="625" y="485" width="35" height="35"/>
            <rect class="cls-3" x="665" y="490" width="25" height="25"/>
            <rect class="cls-2" x="590" y="485" width="35" height="35"/>
            <rect class="cls-1" x="695" y="485" width="35" height="35"/>
            <rect class="cls-2" x="630" y="455" width="25" height="25"/>
            <rect class="cls-2" x="660" y="450" width="35" height="35"/>
            <rect class="cls-1" x="595" y="455" width="25" height="25"/>
            <rect class="cls-3" x="700" y="455" width="25" height="25"/>
            <rect class="cls-3" x="625" y="415" width="35" height="35"/>
            <rect class="cls-1" x="670" y="425" width="15" height="15"/>
            <rect class="cls-2" x="595" y="420.01" width="25" height="25"/>
            <rect class="cls-1" x="695" y="415" width="35" height="35"/>
          </g>
          <g>
            <rect class="cls-2" x="525" y="420" width="25" height="25"/>
            <rect class="cls-1" x="485" y="415" width="35" height="35"/>
            <rect class="cls-1" x="565" y="425" width="15" height="15"/>
            <rect class="cls-2" x="455" y="420" width="25" height="25"/>
            <rect class="cls-3" x="520" y="450" width="35" height="35"/>
            <rect class="cls-3" x="490" y="455" width="25" height="25"/>
            <rect class="cls-2" x="555" y="450" width="35" height="35"/>
            <rect class="cls-1" x="450" y="450" width="35" height="35"/>
            <rect class="cls-2" x="525" y="490" width="25" height="25"/>
            <rect class="cls-2" x="485" y="485" width="35" height="35"/>
            <rect class="cls-1" x="560" y="490.01" width="25" height="25"/>
            <rect class="cls-3" x="455" y="490" width="25" height="25"/>
            <rect class="cls-3" x="520" y="520" width="35" height="35"/>
            <rect class="cls-1" x="495" y="530" width="15" height="15"/>
            <rect class="cls-2" x="560" y="525" width="25" height="25"/>
            <rect class="cls-1" x="450" y="520" width="35" height="35"/>
          </g>
          <g>
            <rect class="cls-1" x="520" y="275" width="35" height="35"/>
            <rect class="cls-1" x="460" y="285" width="15" height="15"/>
            <rect class="cls-2" x="560" y="280" width="25" height="25"/>
            <rect class="cls-3" x="485" y="310" width="35" height="35"/>
            <rect class="cls-2" x="490" y="350" width="25" height="25"/>
            <rect class="cls-2" x="520" y="345" width="35" height="35"/>
            <rect class="cls-3" x="560" y="350" width="25" height="25"/>
            <rect class="cls-3" x="485" y="380" width="35" height="35"/>
            <rect class="cls-1" x="530" y="390" width="15" height="15"/>
            <rect class="cls-1" x="555" y="380" width="35" height="35"/>
          </g>
          <g>
            <rect class="cls-2" x="665" y="385" width="25" height="25"/>
            <rect class="cls-1" x="625" y="380" width="35" height="35"/>
            <rect class="cls-1" x="705" y="390" width="15" height="15"/>
            <rect class="cls-2" x="595" y="385" width="25" height="25"/>
            <rect class="cls-3" x="660" y="345" width="35" height="35"/>
            <rect class="cls-3" x="630" y="350" width="25" height="25"/>
            <rect class="cls-2" x="695" y="345" width="35" height="35"/>
            <rect class="cls-1" x="590" y="345" width="35" height="35"/>
            <rect class="cls-2" x="665" y="315" width="25" height="25"/>
            <rect class="cls-2" x="625" y="310" width="35" height="35"/>
            <rect class="cls-1" x="700" y="315" width="25" height="25"/>
            <rect class="cls-3" x="595" y="315" width="25" height="25"/>
            <rect class="cls-3" x="660" y="275" width="35" height="35"/>
            <rect class="cls-1" x="635" y="285" width="15" height="15"/>
            <rect class="cls-2" x="700" y="280" width="25" height="25"/>
            <rect class="cls-1" x="590" y="275" width="35" height="35"/>
          </g>
        </g>
        <g>
          <g>
            <rect class="cls-2" x="350" y="525" width="25" height="25"/>
            <rect class="cls-1" x="380" y="520" width="35" height="35"/>
            <rect class="cls-1" x="320" y="530" width="15" height="15"/>
            <rect class="cls-2" x="420" y="525" width="25" height="25"/>
            <rect class="cls-3" x="345" y="485" width="35" height="35"/>
            <rect class="cls-3" x="385" y="490" width="25" height="25"/>
            <rect class="cls-1" x="415" y="485" width="35" height="35"/>
            <rect class="cls-2" x="350" y="455" width="25" height="25"/>
            <rect class="cls-2" x="380" y="450" width="35" height="35"/>
            <rect class="cls-1" x="315" y="455" width="25" height="25"/>
            <rect class="cls-3" x="420" y="455" width="25" height="25"/>
            <rect class="cls-3" x="345" y="415" width="35" height="35"/>
            <rect class="cls-1" x="390" y="425" width="15" height="15"/>
            <rect class="cls-1" x="415" y="415" width="35" height="35"/>
          </g>
          <g>
            <rect class="cls-2" x="245" y="420" width="25" height="25"/>
            <rect class="cls-1" x="285" y="425" width="15" height="15"/>
            <rect class="cls-3" x="240" y="450" width="35" height="35"/>
            <rect class="cls-2" x="205" y="485" width="35" height="35"/>
            <rect class="cls-1" x="280" y="490" width="25" height="25"/>
            <rect class="cls-3" x="240" y="520" width="35" height="35"/>
            <rect class="cls-1" x="215" y="530" width="15" height="15"/>
            <rect class="cls-2" x="280" y="525" width="25" height="25"/>
          </g>
          <g>
            <rect class="cls-2" x="210" y="280" width="25" height="25"/>
            <rect class="cls-2" x="280" y="280" width="25" height="25"/>
            <rect class="cls-3" x="245" y="315" width="25" height="25"/>
            <rect class="cls-1" x="175" y="350" width="25" height="25"/>
            <rect class="cls-1" x="250" y="390" width="15" height="15"/>
          </g>
          <g>
            <rect class="cls-1" x="345" y="380" width="35" height="35"/>
            <rect class="cls-1" x="425" y="390" width="15" height="15"/>
            <rect class="cls-2" x="315" y="385" width="25" height="25"/>
            <rect class="cls-3" x="350" y="350" width="25" height="25"/>
            <rect class="cls-2" x="385" y="315" width="25" height="25"/>
            <rect class="cls-1" x="420" y="315" width="25" height="25"/>
            <rect class="cls-3" x="315" y="315" width="25" height="25"/>
            <rect class="cls-3" x="380" y="275" width="35" height="35"/>
            <rect class="cls-1" x="355" y="285" width="15" height="15"/>
            <rect class="cls-1" x="310" y="275" width="35" height="35"/>
          </g>
        </g>
        <g>
          <g>
            <rect class="cls-2" x="525" y="245" width="25" height="25"/>
            <rect class="cls-1" x="565" y="250" width="15" height="15"/>
            <rect class="cls-2" x="455" y="245" width="25" height="25"/>
            <rect class="cls-3" x="520" y="205" width="35" height="35"/>
            <rect class="cls-3" x="490" y="210" width="25" height="25"/>
            <rect class="cls-1" x="450" y="205" width="35" height="35"/>
            <rect class="cls-1" x="560" y="175" width="25" height="25"/>
            <rect class="cls-2" x="560" y="140" width="25" height="25"/>
          </g>
          <g>
            <rect class="cls-2" x="630" y="140" width="25" height="25"/>
            <rect class="cls-1" x="600" y="145" width="15" height="15"/>
            <rect class="cls-3" x="625" y="170" width="35" height="35"/>
            <rect class="cls-3" x="665" y="175" width="25" height="25"/>
            <rect class="cls-2" x="660" y="205" width="35" height="35"/>
            <rect class="cls-3" x="700" y="210" width="25" height="25"/>
            <rect class="cls-3" x="625" y="240" width="35" height="35"/>
            <rect class="cls-2" x="595" y="245" width="25" height="25"/>
            <rect class="cls-1" x="695" y="240" width="35" height="35"/>
          </g>
          <g>
            <rect class="cls-2" x="665" y="0" width="25" height="25"/>
            <rect class="cls-1" x="705" y="5" width="15" height="15"/>
            <rect class="cls-3" x="630" y="35" width="25" height="25"/>
            <rect class="cls-3" x="595" y="70" width="25" height="25"/>
            <rect class="cls-1" x="635" y="110" width="15" height="15"/>
            <rect class="cls-2" x="700" y="105" width="25" height="25"/>
          </g>
          <g>
            <rect class="cls-1" x="520" y="100" width="35" height="35"/>
            <rect class="cls-1" x="460" y="110" width="15" height="15"/>
            <rect class="cls-3" x="560" y="35" width="25" height="25"/>
          </g>
        </g>
      </g>
      <g>
        <rect class="cls-2" x="140" y="250" width="25" height="25"/>
        <g>
          <rect class="cls-3" x="140" y="320" width="25" height="25"/>
          <g>
            <rect class="cls-2" x="105" y="530" width="25" height="25"/>
            <rect class="cls-1" x="145" y="535" width="15" height="15"/>
            <rect class="cls-3" x="70" y="495" width="25" height="25"/>
            <rect class="cls-3" x="35" y="460" width="25" height="25"/>
            <rect class="cls-2" x="140" y="425" width="25" height="25"/>
          </g>
          <rect class="cls-3" x="0" y="495" width="25" height="25"/>
        </g>
      </g>
    </g>
  </g>
</svg>