<?xml version="1.0" encoding="UTF-8"?>
<svg id="Capa_2" xmlns="http://www.w3.org/2000/svg" viewBox="0 0 830 555">
  <defs>
    <style>
      .cls-1 {
        fill: #4d4d4d;
      }

      .cls-2 {
        fill: gray;
      }

      .cls-3 {
        fill: #e6e6e6;
      }
    </style>
  </defs>
  <g id="Capa_1-2" data-name="Capa_1">
    <g>
      <g>
        <g>
          <rect class="cls-2" x="75" y="5" width="25" height="25"/>
          <rect class="cls-1" x="35" width="35" height="35"/>
          <rect class="cls-1" x="115" y="10" width="15" height="15"/>
          <rect class="cls-2" x="5" y="5" width="25" height="25"/>
          <rect class="cls-3" x="70" y="35" width="35" height="35"/>
          <rect class="cls-3" x="40" y="40" width="25" height="25"/>
          <rect class="cls-2" x="105" y="35" width="35" height="35"/>
          <rect class="cls-1" y="35" width="35" height="35"/>
          <rect class="cls-2" x="75" y="75" width="25" height="25"/>
          <rect class="cls-2" x="35" y="70" width="35" height="35"/>
          <rect class="cls-1" x="110" y="75" width="25" height="25"/>
          <rect class="cls-3" x="5" y="75" width="25" height="25"/>
          <rect class="cls-3" x="70" y="105" width="35" height="35"/>
          <rect class="cls-1" x="45" y="115" width="15" height="15"/>
          <rect class="cls-2" x="110" y="110" width="25" height="25"/>
          <rect class="cls-1" y="105" width="35" height="35"/>
        </g>
        <g>
          <rect class="cls-2" x="180" y="110" width="25" height="25"/>
          <rect class="cls-1" x="210" y="105" width="35" height="35"/>
          <rect class="cls-1" x="150" y="115" width="15" height="15"/>
          <rect class="cls-2" x="250" y="110" width="25" height="25"/>
          <rect class="cls-3" x="175" y="70" width="35" height="35"/>
          <rect class="cls-3" x="215" y="75" width="25" height="25"/>
          <rect class="cls-2" x="140" y="70" width="35" height="35"/>
          <rect class="cls-1" x="245" y="70" width="35" height="35"/>
          <rect class="cls-2" x="180" y="40" width="25" height="25"/>
          <rect class="cls-2" x="210" y="35" width="35" height="35"/>
          <rect class="cls-1" x="145" y="40" width="25" height="25"/>
          <rect class="cls-3" x="250" y="40" width="25" height="25"/>
          <rect class="cls-3" x="175" width="35" height="35"/>
          <rect class="cls-1" x="220" y="10" width="15" height="15"/>
          <rect class="cls-2" x="145" y="5" width="25" height="25"/>
          <rect class="cls-1" x="245" width="35" height="35"/>
        </g>
        <g>
          <rect class="cls-1" x="175" y="245" width="35" height="35"/>
          <rect class="cls-1" x="255" y="255" width="15" height="15"/>
          <rect class="cls-2" x="145" y="250" width="25" height="25"/>
          <rect class="cls-3" x="210" y="210" width="35" height="35"/>
          <rect class="cls-2" x="215" y="180" width="25" height="25"/>
          <rect class="cls-2" x="175" y="175" width="35" height="35"/>
          <rect class="cls-3" x="145" y="180" width="25" height="25"/>
          <rect class="cls-3" x="210" y="140" width="35" height="35"/>
          <rect class="cls-1" x="185" y="150" width="15" height="15"/>
          <rect class="cls-1" x="140" y="140" width="35" height="35"/>
        </g>
        <g>
          <rect class="cls-2" x="40" y="145" width="25" height="25"/>
          <rect class="cls-1" x="70" y="140" width="35" height="35"/>
          <rect class="cls-1" x="10" y="150" width="15" height="15"/>
          <rect class="cls-2" x="110" y="145" width="25" height="25"/>
          <rect class="cls-3" x="35" y="175" width="35" height="35"/>
          <rect class="cls-3" x="75" y="180" width="25" height="25"/>
          <rect class="cls-2" y="175" width="35" height="35"/>
          <rect class="cls-1" x="105" y="175" width="35" height="35"/>
          <rect class="cls-2" x="40" y="215" width="25" height="25"/>
          <rect class="cls-2" x="70" y="210" width="35" height="35"/>
          <rect class="cls-1" x="5" y="215" width="25" height="25"/>
          <rect class="cls-3" x="110" y="215" width="25" height="25"/>
          <rect class="cls-3" x="35" y="245" width="35" height="35"/>
          <rect class="cls-1" x="80" y="255" width="15" height="15"/>
          <rect class="cls-2" x="5" y="250" width="25" height="25"/>
          <rect class="cls-1" x="105" y="245" width="35" height="35"/>
        </g>
      </g>
      <g>
        <g>
          <rect class="cls-2" x="355" y="5" width="25" height="25"/>
          <rect class="cls-1" x="315" width="35" height="35"/>
          <rect class="cls-1" x="395" y="10" width="15" height="15"/>
          <rect class="cls-2" x="285" y="5" width="25" height="25"/>
          <rect class="cls-3" x="350" y="35" width="35" height="35"/>
          <rect class="cls-3" x="320" y="40" width="25" height="25"/>
          <rect class="cls-1" x="280" y="35" width="35" height="35"/>
          <rect class="cls-2" x="355" y="75" width="25" height="25"/>
          <rect class="cls-2" x="315" y="70" width="35" height="35"/>
          <rect class="cls-1" x="390" y="75" width="25" height="25"/>
          <rect class="cls-3" x="285" y="75" width="25" height="25"/>
          <rect class="cls-3" x="350" y="105" width="35" height="35"/>
          <rect class="cls-1" x="325" y="115" width="15" height="15"/>
          <rect class="cls-1" x="280" y="105" width="35" height="35"/>
        </g>
        <g>
          <rect class="cls-2" x="460" y="110" width="25" height="25"/>
          <rect class="cls-1" x="430" y="115" width="15" height="15"/>
          <rect class="cls-3" x="455" y="70" width="35" height="35"/>
          <rect class="cls-2" x="490" y="35" width="35" height="35"/>
          <rect class="cls-1" x="425" y="40" width="25" height="25"/>
          <rect class="cls-3" x="455" width="35" height="35"/>
          <rect class="cls-1" x="500" y="10" width="15" height="15"/>
          <rect class="cls-2" x="425" y="5" width="25" height="25"/>
        </g>
        <g>
          <rect class="cls-2" x="495" y="250" width="25" height="25"/>
          <rect class="cls-2" x="425" y="250" width="25" height="25"/>
          <rect class="cls-3" x="460" y="215" width="25" height="25"/>
          <rect class="cls-1" x="530" y="180" width="25" height="25"/>
          <rect class="cls-1" x="465" y="150" width="15" height="15"/>
        </g>
        <g>
          <rect class="cls-1" x="350" y="140" width="35" height="35"/>
          <rect class="cls-1" x="290" y="150" width="15" height="15"/>
          <rect class="cls-2" x="390" y="145" width="25" height="25"/>
          <rect class="cls-3" x="355" y="180" width="25" height="25"/>
          <rect class="cls-2" x="320" y="215" width="25" height="25"/>
          <rect class="cls-1" x="285" y="215" width="25" height="25"/>
          <rect class="cls-3" x="390" y="215" width="25" height="25"/>
          <rect class="cls-3" x="315" y="245" width="35" height="35"/>
          <rect class="cls-1" x="360" y="255" width="15" height="15"/>
          <rect class="cls-1" x="385" y="245" width="35" height="35"/>
        </g>
      </g>
      <g>
        <g>
          <rect class="cls-2" x="180" y="285" width="25" height="25"/>
          <rect class="cls-1" x="150" y="290" width="15" height="15"/>
          <rect class="cls-2" x="250" y="285" width="25" height="25"/>
          <rect class="cls-3" x="175" y="315" width="35" height="35"/>
          <rect class="cls-3" x="215" y="320" width="25" height="25"/>
          <rect class="cls-1" x="245" y="315" width="35" height="35"/>
          <rect class="cls-1" x="145" y="355" width="25" height="25"/>
          <rect class="cls-2" x="145" y="390" width="25" height="25"/>
        </g>
        <g>
          <rect class="cls-2" x="75" y="390" width="25" height="25"/>
          <rect class="cls-1" x="115" y="395" width="15" height="15"/>
          <rect class="cls-3" x="70" y="350" width="35" height="35"/>
          <rect class="cls-3" x="40" y="355" width="25" height="25"/>
          <rect class="cls-2" x="35" y="315" width="35" height="35"/>
          <rect class="cls-3" x="5" y="320" width="25" height="25"/>
          <rect class="cls-3" x="70" y="280" width="35" height="35"/>
          <rect class="cls-2" x="110" y="285" width="25" height="25"/>
          <rect class="cls-1" y="280" width="35" height="35"/>
        </g>
        <g>
          <rect class="cls-2" x="40" y="530" width="25" height="25"/>
          <rect class="cls-1" x="10" y="535" width="15" height="15"/>
          <rect class="cls-3" x="75" y="495" width="25" height="25"/>
          <rect class="cls-3" x="110" y="460" width="25" height="25"/>
          <rect class="cls-1" x="80" y="430" width="15" height="15"/>
          <rect class="cls-2" x="5" y="425" width="25" height="25"/>
        </g>
        <g>
          <rect class="cls-1" x="175" y="420" width="35" height="35"/>
          <rect class="cls-1" x="255" y="430" width="15" height="15"/>
          <rect class="cls-3" x="145" y="495" width="25" height="25"/>
        </g>
      </g>
    </g>
    <g>
      <rect class="cls-2" x="565" y="280" width="25" height="25"/>
      <g>
        <rect class="cls-2" x="705" y="140" width="25" height="25"/>
        <g>
          <rect class="cls-2" x="635" y="140" width="25" height="25"/>
          <rect class="cls-1" x="675" y="145" width="15" height="15"/>
          <rect class="cls-3" x="630" y="170" width="35" height="35"/>
          <rect class="cls-3" x="600" y="175" width="25" height="25"/>
          <rect class="cls-3" x="565" y="210" width="25" height="25"/>
        </g>
        <g>
          <rect class="cls-2" x="600" width="25" height="25"/>
          <rect class="cls-1" x="570" y="5" width="15" height="15"/>
          <rect class="cls-3" x="635" y="35" width="25" height="25"/>
          <rect class="cls-3" x="670" y="70" width="25" height="25"/>
          <rect class="cls-1" x="640" y="110" width="15" height="15"/>
          <rect class="cls-2" x="565" y="105" width="25" height="25"/>
        </g>
        <g>
          <rect class="cls-1" x="735" y="100" width="35" height="35"/>
          <rect class="cls-1" x="815" y="110" width="15" height="15"/>
          <rect class="cls-3" x="705" y="35" width="25" height="25"/>
        </g>
      </g>
    </g>
  </g>
</svg>