<?xml version="1.0" encoding="UTF-8"?>
<svg id="Capa_1" xmlns="http://www.w3.org/2000/svg" viewBox="0 0 158.7 119.1">
  <defs>
    <style>
      .cls-1 {
        fill: #fff;
      }
    </style>
  </defs>
  <g id="svg8">
    <g id="layer1">
      <path id="path" class="cls-1" d="M0,0v119.1h158.7V0H0ZM87.4,11h0c-9.4,3.6-18.5,11.6-25.8,27.7-2.1,4.6-6.1,13.6-7.9,17.7-14.7,32.3-22.3,39.2-44.4,39.2V8.9h77.8c.6,0,1.1.4,1.1,1,0,.5-.3.9-.7,1.1h-.1ZM149.7,23.5v86.6h-78c-.6,0-1.1-.4-1.1-1,0-.5.3-.9.7-1h0c9.4-3.6,18.5-11.6,25.8-27.7,2.1-4.6,6.1-13.6,7.9-17.7,14.7-32.3,22.2-39.2,44.4-39.2h.3Z"/>
    </g>
  </g>
</svg>