<?xml version="1.0" encoding="UTF-8"?>
<svg id="Capa_1" xmlns="http://www.w3.org/2000/svg" viewBox="0 0 724.7 119.1">
  <defs>
    <style>
      .cls-1 {
        fill: #fff;
      }
    </style>
  </defs>
  <g id="svg8">
    <g id="layer1">
      <path id="path" class="cls-1" d="M316.4,24.3h13.6v70.6h-17.4l-20.2-32.5c-3.5-5.7-6.4-11.7-6.4-11.7h-.2v44.2h-13.7V24.3h16l24,38.4c1.6,2.5,3,5.2,4.1,8h0V24.3h.2ZM394.8,53.1h-23.8v-28.9h-17.3v70.6h17.3v-30.1h23.8v30.1h17.4V24.2h-17.4v28.9ZM141.3,64.1h22.5v-10.6h-22.5v-18.4h30.1v-10.9h-47.5v70.6h48v-11.8h-30.6v-18.9h0ZM78.7,40.3c-1.1-1.3-1-3.3.3-4.4.6-.5,1.4-.8,2.2-.8h25.8v-10.9h-30.6c-8.2-.3-15,6-15.5,14.2,0,4.1.3,7.1,6.5,13.7l23,24.1c1.6,1.4,1.8,3.9.4,5.5-.8.9-1.9,1.4-3,1.3h-28.3v11.8h32.4c9.2.3,16.9-6.9,17.3-16.1v-.5c0-4.7-1.1-7.8-7.3-14.2l-23.3-23.8.1.1ZM234.9,70.6h0c-1.1-2.8-2.5-5.4-4.1-8l-24-38.4h-16v70.6h13.6v-44.1h.2s2.8,6.1,6.4,11.7l20.2,32.5h17.4V24.3h-13.6v46.3h-.1ZM617.8,64.1h22.5v-10.6h-22.5v-18.4h30.1v-10.9h-47.5v70.6h48v-11.8h-30.6v-18.9h0ZM724.7,94.8h-18.9l-13.5-29h-7.6v29h-17.3V24.3h31.6c15.3,0,22.3,9.5,22.3,20.5,0,8.6-5.5,16.3-13.6,19.1l17,31v-.1ZM706.5,45.2c0-3.3-1.9-10-11.1-10h-10.7v20.1h10.5c9.5,0,11.3-7,11.3-10v-.1ZM555.1,40.3c-1.1-1.3-1-3.3.3-4.4.6-.5,1.4-.8,2.2-.8h25.8v-10.9h-30.7c-8.2-.3-15,6-15.5,14.2,0,4.1.3,7.1,6.5,13.7l23,24.1c1.7,1.3,2,3.8.7,5.5-.8,1-2,1.6-3.3,1.5h-28.4v11.8h32.4c9.2.3,16.9-6.9,17.3-16.1v-.5c0-4.7-1.1-7.8-7.3-14.2l-23.2-23.9h.2ZM453.3,64.1h22.5v-10.6h-22.5v-18.4h30.1v-10.9h-47.5v70.6h48v-11.8h-30.6v-18.9h0ZM502.8,94.8h17.4V24.3h-17.4v70.6h0v-.1Z"/>
    </g>
  </g>
</svg>