<?xml version="1.0" encoding="UTF-8"?>
<svg xmlns="http://www.w3.org/2000/svg" version="1.1" xmlns:cc="http://creativecommons.org/ns#" xmlns:dc="http://purl.org/dc/elements/1.1/" xmlns:inkscape="http://www.inkscape.org/namespaces/inkscape" xmlns:rdf="http://www.w3.org/1999/02/22-rdf-syntax-ns#" xmlns:sodipodi="http://sodipodi.sourceforge.net/DTD/sodipodi-0.dtd" xmlns:svg="http://www.w3.org/2000/svg" viewBox="0 0 883.4 119.1">
  <defs>
    <style>
      .cls-1 {
        fill: #fff;
      }
    </style>
  </defs>
  <!-- Generator: Adobe Illustrator 28.7.1, SVG Export Plug-In . SVG Version: 1.2.0 Build 142)  -->
  <g>
    <g id="svg8">
      <sodipodi:namedview id="base" bordercolor="#666666" borderopacity="1.0" fit-margin-bottom="0" fit-margin-left="0" fit-margin-right="0" fit-margin-top="0" inkscape:current-layer="layer1" inkscape:cx="400" inkscape:cy="560" inkscape:document-rotation="0" inkscape:document-units="mm" inkscape:pageopacity="0.0" inkscape:pageshadow="2" inkscape:window-height="837" inkscape:window-maximized="1" inkscape:window-width="1600" inkscape:window-x="-8" inkscape:window-y="-8" inkscape:zoom="0.35" pagecolor="#ffffff" showgrid="false"/>
      <g id="layer1" inkscape:groupmode="layer" inkscape:label="Calque 1">
        <path id="path" class="cls-1" d="M475.1,24.3h13.6v70.6h-17.4l-20.2-32.5c-3.5-5.7-6.4-11.7-6.4-11.7h-.2v44.2h-13.7V24.3h16l24,38.4c1.6,2.5,3,5.2,4.1,8h0V24.3h.1ZM553.5,53.1h-23.8v-28.9h-17.3v70.6h17.3v-30.1h23.8v30.1h17.4V24.2h-17.4v28.9ZM300,64.1h22.5v-10.6h-22.5v-18.4h30.1v-10.9h-47.5v70.6h48v-11.8h-30.6v-18.9h0ZM237.4,40.3c-1.1-1.3-1-3.3.3-4.4.6-.5,1.4-.8,2.2-.8h25.8v-10.9h-30.6c-8.2-.3-15,6-15.5,14.2,0,4.1.3,7.1,6.5,13.7l23,24.1c1.6,1.4,1.8,3.9.4,5.5-.8.9-1.9,1.4-3,1.3h-28.3v11.8h32.4c9.2.3,16.9-6.9,17.3-16.1,0-.2,0-.3,0-.5,0-4.7-1.1-7.8-7.3-14.2l-23.3-23.8ZM393.6,70.6h0c-1.1-2.8-2.5-5.4-4.1-8l-24-38.4h-16v70.6h13.6v-44.1h.2s2.8,6.1,6.4,11.7l20.2,32.5h17.4V24.3h-13.6v46.3h-.1ZM776.5,64.1h22.5v-10.6h-22.5v-18.4h30.1v-10.9h-47.5v70.6h48v-11.8h-30.6v-18.9h0ZM883.4,94.8h-18.9l-13.5-29h-7.6v29h-17.3V24.3h31.6c15.3,0,22.3,9.5,22.3,20.5,0,8.6-5.5,16.3-13.6,19.1l17,31ZM865.2,45.2c0-3.3-1.9-10-11.1-10h-10.7v20.1h10.5c9.5,0,11.3-7,11.3-10ZM713.8,40.3c-1.1-1.3-1-3.3.3-4.4.6-.5,1.4-.8,2.2-.8h25.8v-10.9h-30.7c-8.2-.3-15,6-15.5,14.2,0,4.1.3,7.1,6.5,13.7l23,24.1c1.7,1.3,2,3.8.7,5.5-.8,1-2,1.6-3.3,1.5h-28.4v11.8h32.4c9.2.3,16.9-6.9,17.3-16.1,0-.2,0-.3,0-.5,0-4.7-1.1-7.8-7.3-14.2l-23.2-23.9ZM612,64.1h22.5v-10.6h-22.5v-18.4h30.1v-10.9h-47.5v70.6h48v-11.8h-30.6v-18.9h0ZM661.5,94.8h17.4V24.3h-17.4v70.6h0ZM0,0v119.1h158.7V0H0ZM87.4,11h0c-9.4,3.6-18.5,11.6-25.8,27.7-2.1,4.6-6.1,13.6-7.9,17.7-14.7,32.3-22.3,39.2-44.4,39.2V8.9h77.8c.6,0,1.1.4,1.1,1,0,.5-.3.9-.7,1.1h0ZM149.7,23.5v86.6h-78c-.6,0-1.1-.4-1.1-1,0-.5.3-.9.7-1h0c9.4-3.6,18.5-11.6,25.8-27.7,2.1-4.6,6.1-13.6,7.9-17.7,14.7-32.3,22.2-39.2,44.4-39.2h.1Z" sodipodi:nodetypes="ccc"/>
      </g>
    </g>
  </g>
</svg>