<?xml version="1.0" encoding="UTF-8"?>
<svg xmlns="http://www.w3.org/2000/svg" version="1.1" xmlns:cc="http://creativecommons.org/ns#" xmlns:dc="http://purl.org/dc/elements/1.1/" xmlns:inkscape="http://www.inkscape.org/namespaces/inkscape" xmlns:rdf="http://www.w3.org/1999/02/22-rdf-syntax-ns#" xmlns:sodipodi="http://sodipodi.sourceforge.net/DTD/sodipodi-0.dtd" xmlns:svg="http://www.w3.org/2000/svg" viewBox="0 0 158.7 119.1">
  <defs>
    <style>
      .cls-1 {
        fill: #fff;
      }
    </style>
  </defs>
  <!-- Generator: Adobe Illustrator 28.7.1, SVG Export Plug-In . SVG Version: 1.2.0 Build 142)  -->
  <g>
    <g id="Capa_1">
      <g id="svg8" inkscape:version="1.0.1 (3bc2e813f5, 2020-09-07)" sodipodi:docname="Sennheiser logo (2019).svg">
        <sodipodi:namedview id="base" bordercolor="#666666" borderopacity="1.0" fit-margin-bottom="0" fit-margin-left="0" fit-margin-right="0" fit-margin-top="0" inkscape:current-layer="layer1" inkscape:cx="400" inkscape:cy="560" inkscape:document-rotation="0" inkscape:document-units="mm" inkscape:pageopacity="0.0" inkscape:pageshadow="2" inkscape:window-height="837" inkscape:window-maximized="1" inkscape:window-width="1600" inkscape:window-x="-8" inkscape:window-y="-8" inkscape:zoom="0.35" pagecolor="#ffffff" showgrid="false"/>
        <g id="layer1" inkscape:groupmode="layer" inkscape:label="Calque 1">
          <path id="path" class="cls-1" d="M0,0v119.1h158.7V0H0ZM87.4,11h0c-9.4,3.6-18.5,11.6-25.8,27.7-2.1,4.6-6.1,13.6-7.9,17.7-14.7,32.3-22.3,39.2-44.4,39.2V8.9h77.8c.6,0,1.1.4,1.1,1s-.3.9-.7,1.1h-.1ZM149.7,23.5v86.6h-78c-.6,0-1.1-.4-1.1-1s.3-.9.7-1h0c9.4-3.6,18.5-11.6,25.8-27.7,2.1-4.6,6.1-13.6,7.9-17.7,14.7-32.3,22.2-39.2,44.4-39.2h.3Z" sodipodi:nodetypes="ccc"/>
        </g>
      </g>
    </g>
  </g>
</svg>