<?xml version="1.0" encoding="UTF-8"?>
<svg id="Capa_2" xmlns="http://www.w3.org/2000/svg" viewBox="0 0 480.87 485.8">
  <defs>
    <style>
      .cls-1 {
        fill: #f2ebe7;
      }

      .cls-2 {
        fill: #fff;
      }

      .cls-3 {
        fill: #c9c8cc;
      }
    </style>
  </defs>
  <g id="Capa_1-2" data-name="Capa_1">
    <g>
      <rect class="cls-3" x="420.18" y="4.67" width="23.34" height="23.36"/>
      <rect class="cls-2" x="448.19" y="0" width="32.68" height="32.7"/>
      <rect class="cls-2" x="392.17" y="9.34" width="14.01" height="14.01"/>
      <rect class="cls-1" x="415.51" y="32.7" width="32.68" height="32.7"/>
      <rect class="cls-1" x="452.86" y="37.37" width="23.34" height="23.36"/>
      <rect class="cls-3" x="420.18" y="70.07" width="23.34" height="23.36"/>
      <rect class="cls-3" x="448.19" y="65.4" width="32.68" height="32.7"/>
      <rect class="cls-2" x="387.5" y="70.07" width="23.34" height="23.36"/>
      <rect class="cls-1" x="415.51" y="98.09" width="32.68" height="32.7"/>
      <rect class="cls-2" x="457.53" y="107.44" width="14.01" height="14.01"/>
      <g>
        <rect class="cls-3" x="322.14" y="102.77" width="23.34" height="23.36"/>
        <rect class="cls-2" x="359.49" y="107.44" width="14.01" height="14.01"/>
        <rect class="cls-1" x="317.47" y="65.4" width="32.68" height="32.7"/>
        <rect class="cls-3" x="284.79" y="32.7" width="32.68" height="32.7"/>
        <rect class="cls-2" x="354.82" y="37.36" width="23.34" height="23.36"/>
        <rect class="cls-1" x="317.47" y="0" width="32.68" height="32.7"/>
        <rect class="cls-2" x="294.13" y="9.34" width="14.01" height="14.01"/>
        <rect class="cls-3" x="354.82" y="4.68" width="23.34" height="23.36"/>
      </g>
      <g>
        <rect class="cls-3" x="289.46" y="233.56" width="23.34" height="23.36"/>
        <rect class="cls-3" x="354.82" y="233.56" width="23.34" height="23.36"/>
        <rect class="cls-1" x="322.14" y="200.86" width="23.34" height="23.36"/>
        <rect class="cls-2" x="256.78" y="168.16" width="23.34" height="23.36"/>
        <rect class="cls-2" x="326.81" y="140.14" width="14.01" height="14.01"/>
      </g>
      <rect class="cls-2" x="415.51" y="130.79" width="32.68" height="32.7"/>
      <rect class="cls-3" x="387.5" y="135.46" width="23.34" height="23.36"/>
      <rect class="cls-1" x="420.18" y="168.16" width="23.34" height="23.36"/>
      <rect class="cls-3" x="452.86" y="200.86" width="23.34" height="23.36"/>
      <rect class="cls-1" x="387.5" y="200.86" width="23.34" height="23.36"/>
      <rect class="cls-1" x="448.19" y="228.89" width="32.68" height="32.7"/>
      <rect class="cls-2" x="424.85" y="238.23" width="14.01" height="14.01"/>
      <rect class="cls-2" x="382.83" y="228.89" width="32.68" height="32.7"/>
      <g>
        <rect class="cls-3" x="387.69" y="266.26" width="23.34" height="23.36"/>
        <rect class="cls-2" x="425.04" y="270.93" width="14.01" height="14.01"/>
        <rect class="cls-3" x="322.33" y="266.26" width="23.34" height="23.36"/>
        <rect class="cls-1" x="383.02" y="294.28" width="32.68" height="32.7"/>
        <rect class="cls-1" x="355.01" y="298.95" width="23.34" height="23.36"/>
        <rect class="cls-2" x="317.66" y="294.28" width="32.68" height="32.7"/>
        <rect class="cls-2" x="420.37" y="331.66" width="23.34" height="23.36"/>
        <rect class="cls-3" x="420.37" y="364.35" width="23.34" height="23.36"/>
      </g>
      <rect class="cls-2" x="457.72" y="369.02" width="14.01" height="14.01"/>
      <rect class="cls-3" x="453.05" y="266.26" width="23.34" height="23.36"/>
      <rect class="cls-1" x="453.05" y="429.75" width="23.34" height="23.36"/>
      <g>
        <rect class="cls-2" x="383.02" y="392.38" width="32.68" height="32.7"/>
        <rect class="cls-2" x="327" y="401.72" width="14.01" height="14.01"/>
        <rect class="cls-1" x="420.37" y="462.45" width="23.34" height="23.36"/>
      </g>
      <g>
        <rect class="cls-3" x="224.1" y="266.26" width="23.34" height="23.36"/>
        <g>
          <rect class="cls-3" x="93.37" y="135.47" width="23.34" height="23.36"/>
          <g>
            <rect class="cls-3" x="158.73" y="135.46" width="23.34" height="23.36"/>
            <rect class="cls-2" x="130.72" y="140.13" width="14.01" height="14.01"/>
            <rect class="cls-1" x="154.07" y="163.49" width="32.68" height="32.7"/>
            <rect class="cls-1" x="191.42" y="168.16" width="23.34" height="23.36"/>
            <rect class="cls-1" x="224.1" y="200.86" width="23.34" height="23.36"/>
          </g>
          <g>
            <rect class="cls-3" x="191.42" y="4.67" width="23.34" height="23.36"/>
            <rect class="cls-2" x="228.77" y="9.34" width="14.01" height="14.01"/>
            <rect class="cls-1" x="158.74" y="37.37" width="23.34" height="23.36"/>
            <rect class="cls-1" x="126.05" y="70.07" width="23.34" height="23.36"/>
            <rect class="cls-2" x="163.4" y="107.44" width="14.01" height="14.01"/>
            <rect class="cls-3" x="224.1" y="102.76" width="23.34" height="23.36"/>
          </g>
          <g>
            <rect class="cls-2" x="56.02" y="98.09" width="32.68" height="32.7"/>
            <rect class="cls-2" x="0" y="107.44" width="14.01" height="14.01"/>
            <rect class="cls-1" x="93.37" y="37.37" width="23.34" height="23.36"/>
          </g>
        </g>
      </g>
    </g>
  </g>
</svg>