<?xml version="1.0" encoding="UTF-8"?>
<svg id="Capa_2" xmlns="http://www.w3.org/2000/svg" xmlns:xlink="http://www.w3.org/1999/xlink" viewBox="0 0 159 159">
  <defs>
    <style>
      .cls-1 {
        fill: none;
      }

      .cls-2 {
        fill: #f80;
      }

      .cls-3 {
        clip-path: url(#clippath);
      }
    </style>
    <clipPath id="clippath">
      <rect class="cls-1" width="159" height="159"/>
    </clipPath>
  </defs>
  <g id="Capa_1-2" data-name="Capa_1">
    <g class="cls-3">
      <g>
        <path class="cls-2" d="M49.69,129.19h59.62v-29.81h-9.94v4.97c0,1.32-.52,2.58-1.46,3.51s-2.2,1.45-3.51,1.45-2.58-.52-3.51-1.45-1.46-2.19-1.46-3.51v-4.97h-39.75v29.81Z"/>
        <path class="cls-2" d="M59.62,19.88v3.39c-23.15,8.19-39.75,30.28-39.75,56.24v11.84l-11.63,5.81c-2.48,1.24-4.56,3.14-6.02,5.5C.77,105,0,107.71,0,110.49v23.67c0,3.95,1.57,7.74,4.37,10.54,2.8,2.79,6.59,4.36,10.54,4.36h9.94c4.53,6.03,11.75,9.94,19.88,9.94h69.56c8.13,0,15.34-3.9,19.88-9.94h9.94c3.95,0,7.75-1.57,10.54-4.36,2.8-2.8,4.37-6.59,4.37-10.54v-23.67c0-2.77-.77-5.49-2.23-7.84-1.46-2.36-3.54-4.26-6.02-5.5l-11.63-5.81v-11.84c0-12.33-3.82-24.37-10.93-34.44-7.12-10.07-17.19-17.69-28.82-21.8v-3.39c0-5.27-2.09-10.33-5.82-14.05-3.73-3.73-8.78-5.82-14.05-5.82s-10.33,2.09-14.05,5.82c-3.73,3.73-5.82,8.78-5.82,14.05ZM79.5,9.94c2.64,0,5.16,1.05,7.03,2.91,1.86,1.86,2.91,4.39,2.91,7.03v.82c-6.58-1.11-13.3-1.11-19.88,0v-.82c0-2.64,1.05-5.16,2.91-7.03,1.86-1.86,4.39-2.91,7.03-2.91ZM79.5,39.75c9.56,0,18.81,3.44,26.03,9.7,7.23,6.26,11.96,14.92,13.32,24.38.1.65.08,1.32-.08,1.96-.16.64-.44,1.24-.83,1.78-.39.53-.89.98-1.45,1.32-.57.34-1.19.56-1.85.65-.65.09-1.32.05-1.96-.11s-1.24-.46-1.76-.86c-.52-.4-.96-.9-1.29-1.48-.33-.57-.54-1.2-.62-1.86-1.01-7.11-4.56-13.61-9.98-18.31-5.42-4.7-12.36-7.29-19.54-7.29s-14.12,2.59-19.54,7.29c-5.42,4.7-8.96,11.21-9.98,18.31-.08.65-.29,1.29-.62,1.86-.33.57-.77,1.07-1.29,1.48-.52.4-1.12.69-1.76.86-.64.17-1.3.21-1.96.11-.65-.09-1.28-.31-1.85-.65-.57-.34-1.06-.78-1.45-1.32-.39-.53-.67-1.13-.83-1.78-.16-.64-.18-1.31-.08-1.96,1.36-9.46,6.09-18.12,13.32-24.38,7.23-6.26,16.47-9.71,26.03-9.7ZM44.72,89.44h69.56c1.32,0,2.58.52,3.51,1.46s1.46,2.2,1.46,3.51v39.75c0,1.32-.52,2.58-1.46,3.51-.93.93-2.2,1.46-3.51,1.46H44.72c-1.32,0-2.58-.52-3.51-1.46-.93-.93-1.46-2.2-1.46-3.51v-39.75c0-1.32.52-2.58,1.46-3.51s2.2-1.46,3.51-1.46Z"/>
      </g>
    </g>
  </g>
</svg>