<?xml version="1.0" encoding="UTF-8"?>
<svg xmlns="http://www.w3.org/2000/svg" version="1.1" viewBox="0 0 96 96">
  <defs>
    <style>
      .cls-1 {
        fill: #f80;
      }
    </style>
  </defs>
  <!-- Generator: Adobe Illustrator 28.7.1, SVG Export Plug-In . SVG Version: 1.2.0 Build 142)  -->
  <g>
    <g id="Capa_1">
      <path class="cls-1" d="M82.8,37.5l-24.2-24.2,3-3.1c1.5-1.5,3.4-2.3,5.7-2.2s4.2.8,5.7,2.3l12.9,12.9c1.5,1.5,2.3,3.4,2.3,5.6s-.8,4.1-2.3,5.6l-3.1,3ZM34.8,85.6c-1.5,1.5-3.4,2.3-5.6,2.3s-4.1-.8-5.7-2.3l-14.3-14.3c-1.1-1.1-1.7-2.6-1.7-4.2s.6-3.1,1.7-4.2l4.4-4.4,24.2,24.2-3,3ZM48.6,84.9c-.6.6-1.3.9-2.1.9s-1.5-.3-2.1-.9L11.3,51.8c-.6-.6-.9-1.3-.9-2.1s.3-1.5.9-2.1l9.3-9.3c.6-.6,1.3-.9,2.1-.9s1.5.3,2.1.9l7.7,7.7,13.8-13.8-7.7-7.7c-.6-.6-.9-1.3-.9-2.1s.3-1.5.9-2.1l9.2-9.3c.6-.6,1.3-.9,2.2-.9s1.5.3,2.1.9l33.1,33.1c.6.6.9,1.3.9,2.1s-.3,1.6-.9,2.2l-9.3,9.2c-.6.6-1.3.9-2.1.9s-1.5-.3-2.1-.9l-7.7-7.7-13.8,13.8,7.7,7.7c.6.6.9,1.3.9,2.1s-.3,1.5-.9,2.1l-9.3,9.3Z"/>
    </g>
  </g>
</svg>