<?xml version="1.0" encoding="UTF-8"?>
<svg id="Capa_2" xmlns="http://www.w3.org/2000/svg" viewBox="0 0 172.31 159">
  <defs>
    <style>
      .cls-1 {
        fill: #f80;
      }
    </style>
  </defs>
  <g id="Capa_1-2" data-name="Capa_1">
    <g>
      <path class="cls-1" d="M139.37,159c10.46-10.43,18.75-22.82,24.41-36.46,5.65-13.64,8.55-28.27,8.53-43.04.02-14.77-2.88-29.39-8.53-43.04-5.65-13.64-13.95-26.03-24.41-36.46l-9.37,9.35c9.22,9.2,16.54,20.14,21.53,32.18,4.99,12.04,7.55,24.94,7.53,37.97,0,27.39-11.11,52.2-29.06,70.15l9.37,9.35Z"/>
      <path class="cls-1" d="M120.65,140.3c8-7.98,14.34-17.45,18.66-27.88,4.32-10.43,6.54-21.62,6.53-32.91.01-11.29-2.2-22.48-6.53-32.91-4.32-10.43-10.66-19.91-18.66-27.88l-9.35,9.35c6.77,6.75,12.13,14.77,15.79,23.59,3.66,8.83,5.53,18.29,5.52,27.85.02,9.56-1.85,19.02-5.51,27.86-3.65,8.83-9.02,16.85-15.79,23.6l9.34,9.34Z"/>
      <path class="cls-1" d="M101.95,121.59c5.53-5.53,9.91-12.09,12.9-19.31,2.99-7.22,4.53-14.96,4.53-22.78s-1.54-15.56-4.53-22.78c-2.99-7.22-7.38-13.78-12.9-19.31l-9.35,9.35c4.3,4.3,7.71,9.4,10.04,15.02,2.33,5.62,3.52,11.64,3.52,17.72s-1.2,12.1-3.52,17.72c-2.33,5.62-5.74,10.72-10.04,15.02l9.35,9.35ZM75.62,20.64c1.12.54,2.07,1.38,2.73,2.44.66,1.05,1.01,2.27,1.02,3.52v105.82c0,1.25-.35,2.46-1.02,3.52s-1.61,1.9-2.73,2.44c-1.12.54-2.37.75-3.61.61-1.24-.14-2.41-.63-3.38-1.4l-31.26-25H6.61c-1.75,0-3.44-.7-4.68-1.94-1.24-1.24-1.94-2.92-1.94-4.68v-52.91c0-1.75.7-3.44,1.94-4.68,1.24-1.24,2.92-1.94,4.68-1.94h30.75l31.26-25c.97-.78,2.15-1.27,3.38-1.41,1.24-.14,2.49.07,3.61.61Z"/>
    </g>
  </g>
</svg>