<?xml version="1.0" encoding="UTF-8"?>
<svg xmlns="http://www.w3.org/2000/svg" version="1.1" viewBox="0 0 96 96">
  <defs>
    <style>
      .cls-1 {
        fill: #f80;
      }
    </style>
  </defs>
  <!-- Generator: Adobe Illustrator 28.7.1, SVG Export Plug-In . SVG Version: 1.2.0 Build 142)  -->
  <g>
    <g id="Capa_1">
      <path class="cls-1" d="M78,47.9c0-6.3-1.8-11.9-5.2-16.9s-8.1-8.6-13.8-10.9c-.8-.3-1.4-.9-1.7-1.6s-.3-1.5,0-2.2c.3-.8.9-1.3,1.8-1.6s1.7-.3,2.6,0c6.7,2.7,12.1,7.1,16.2,13.1s6.1,12.7,6.1,20.1-2,14.1-6.1,20.1-9.5,10.4-16.2,13.1c-.9.3-1.7.4-2.6,0s-1.4-.8-1.8-1.6c-.3-.7-.3-1.5,0-2.2s.9-1.3,1.7-1.6c5.7-2.3,10.2-5.9,13.8-10.9s5.2-10.6,5.2-16.9ZM28,60h-13c-.9,0-1.6-.3-2.1-.9-.6-.6-.9-1.3-.9-2.1v-18c0-.9.3-1.6.9-2.2.6-.6,1.3-.8,2.1-.8h13l14.9-14.9c.9-.9,2-1.1,3.2-.6s1.9,1.4,1.9,2.8v49.6c0,1.3-.6,2.2-1.9,2.8s-2.3.3-3.2-.6l-14.9-14.9ZM66,48c0,3.5-.9,6.6-2.6,9.4s-4.2,4.9-7.3,6.4c-.5.3-1,.2-1.5-.1s-.6-.8-.6-1.3v-28.9c0-.5.2-1,.6-1.3s.9-.4,1.5-.1c3.1,1.5,5.6,3.6,7.3,6.5s2.6,6,2.6,9.4Z"/>
    </g>
  </g>
</svg>