<?xml version="1.0" encoding="UTF-8"?>
<svg xmlns="http://www.w3.org/2000/svg" version="1.1" viewBox="0 0 96 96">
  <defs>
    <style>
      .cls-1 {
        fill: #f80;
      }
    </style>
  </defs>
  <!-- Generator: Adobe Illustrator 28.7.1, SVG Export Plug-In . SVG Version: 1.2.0 Build 142)  -->
  <g>
    <g id="Capa_1">
      <path class="cls-1" d="M26,88c-1.6,0-3-.6-4.2-1.8s-1.8-2.6-1.8-4.2v-35c0-5.9,1.6-11.1,4.9-15.9,3.3-4.7,7.5-8.1,12.6-10.2v-1.9c0-2.9,1-5.5,3.1-7.7s4.5-3.3,7.4-3.3,5.4,1.1,7.5,3.3,3,4.8,3,7.7v1.9c5.1,2.1,9.3,5.6,12.6,10.2,3.3,4.7,4.9,10,4.9,15.9v35c0,1.6-.6,3-1.8,4.2s-2.6,1.8-4.2,1.8H26ZM64,63c.8,0,1.5-.3,2.1-.9s.9-1.3.9-2.1v-6c0-1.7-.6-3.1-1.8-4.2s-2.6-1.8-4.2-1.8h-29c-.9,0-1.6.3-2.1.9s-.9,1.3-.9,2.1.3,1.6.9,2.1,1.3.9,2.1.9h29v6c0,.8.3,1.5.9,2.1s1.3.9,2.1.9ZM43.5,19.2c.3,0,1-.1,2.1-.1s1.8,0,2.4,0,1.4,0,2.5,0c1,0,1.7,0,2,.1v-.2c0-1.3-.4-2.5-1.2-3.5-.8-1-1.9-1.5-3.2-1.5s-2.4.5-3.2,1.5-1.2,2.2-1.2,3.5v.2Z"/>
    </g>
  </g>
</svg>