<?xml version="1.0" encoding="UTF-8"?>
<svg id="Capa_2" xmlns="http://www.w3.org/2000/svg" xmlns:xlink="http://www.w3.org/1999/xlink" viewBox="0 0 151.5 151.5">
  <defs>
    <style>
      .cls-1 {
        fill: none;
      }

      .cls-2 {
        fill: #f80;
        fill-rule: evenodd;
      }

      .cls-3 {
        clip-path: url(#clippath);
      }
    </style>
    <clipPath id="clippath">
      <rect class="cls-1" width="151.5" height="151.5"/>
    </clipPath>
  </defs>
  <g id="Capa_1-2" data-name="Capa_1">
    <g class="cls-3">
      <path class="cls-2" d="M18.94,146.77V18.94c0-5.02,2-9.84,5.55-13.39,3.55-3.55,8.37-5.55,13.39-5.55h75.75c5.02,0,9.84,2,13.39,5.55,3.55,3.55,5.55,8.37,5.55,13.39v127.83c0,.82-.21,1.63-.62,2.34-.41.71-.99,1.31-1.7,1.73-.71.42-1.51.65-2.33.66-.82.01-1.63-.19-2.35-.58l-49.81-27.17-49.81,27.17c-.72.4-1.53.6-2.35.58-.82-.01-1.63-.24-2.33-.66-.71-.42-1.29-1.02-1.7-1.73-.41-.71-.62-1.52-.62-2.34ZM102.77,55.43c.89-.89,1.39-2.09,1.39-3.35s-.5-2.46-1.39-3.35-2.1-1.39-3.35-1.39-2.46.5-3.35,1.39l-25.05,25.06-10.85-10.86c-.44-.44-.96-.79-1.54-1.03-.58-.24-1.19-.36-1.81-.36s-1.24.12-1.81.36c-.58.24-1.1.59-1.54,1.03-.44.44-.79.96-1.03,1.54-.24.58-.36,1.19-.36,1.81s.12,1.24.36,1.81c.24.58.59,1.1,1.03,1.54l14.2,14.2c.44.44.96.79,1.54,1.03.58.24,1.19.36,1.81.36s1.24-.12,1.81-.36c.58-.24,1.1-.59,1.54-1.03l28.41-28.41Z"/>
    </g>
  </g>
</svg>