<?xml version="1.0" encoding="UTF-8"?>
<svg id="Capa_2" xmlns="http://www.w3.org/2000/svg" viewBox="0 0 169.11 169.11">
  <defs>
    <style>
      .cls-1 {
        fill: #f80;
      }
    </style>
  </defs>
  <g id="Capa_1-2" data-name="Capa_1">
    <g>
      <rect class="cls-1" x="37.59" y="76.74" width="92.9" height="14.59" transform="translate(-34.81 84.04) rotate(-45)"/>
      <g>
        <rect class="cls-1" x="-2.93" y="120.46" width="87.46" height="15.7" rx="7.85" ry="7.85" transform="translate(-21.07 247.89) rotate(-135)"/>
        <rect class="cls-1" x="8.22" y="104.32" width="97.44" height="15.7" rx="7.85" ry="7.85" transform="translate(17.88 231.75) rotate(-135)"/>
        <rect class="cls-1" x="-6.97" y="136.59" width="63.27" height="15.7" rx="7.85" ry="7.85" transform="translate(-60.02 264.02) rotate(-135)"/>
      </g>
      <g>
        <rect class="cls-1" x="84.58" y="32.95" width="87.46" height="15.7" rx="7.85" ry="7.85" transform="translate(190.18 160.38) rotate(-135)"/>
        <rect class="cls-1" x="63.46" y="49.09" width="97.44" height="15.7" rx="7.85" ry="7.85" transform="translate(151.23 176.52) rotate(-135)"/>
        <rect class="cls-1" x="112.81" y="16.82" width="63.27" height="15.7" rx="7.85" ry="7.85" transform="translate(229.14 144.25) rotate(-135)"/>
      </g>
    </g>
  </g>
</svg>