<?xml version="1.0" encoding="UTF-8"?>
<svg xmlns="http://www.w3.org/2000/svg" version="1.1" viewBox="0 0 96 96">
  <defs>
    <style>
      .cls-1 {
        fill: #f80;
      }
    </style>
  </defs>
  <!-- Generator: Adobe Illustrator 28.7.1, SVG Export Plug-In . SVG Version: 1.2.0 Build 142)  -->
  <g>
    <g id="Capa_1">
      <path class="cls-1" d="M48,82.8c-.7,0-1.5-.1-2.2-.4s-1.4-.7-1.9-1.2l-5.3-4.9c-8.3-7.7-15.4-15-21.5-22-6.1-7-9.1-14.2-9.1-21.9s2-11,6.1-15c4-4,9-6.1,14.9-6.1s6.8.8,10.1,2.4,6.3,4.3,8.9,8.1c2.9-3.7,6-6.4,9.1-8.1s6.4-2.4,9.9-2.4c5.9,0,10.9,2,15,6.1s6,9,6,15-3,14.9-9.1,21.9-13.2,14.3-21.5,22l-5.3,4.9c-.5.5-1.2.9-1.9,1.2s-1.5.4-2.2.4Z"/>
    </g>
  </g>
</svg>